<?xml version="1.0" encoding="UTF-8"?>
<mxfile host="app.diagrams.net" agent="Mozilla/5.0 (Windows NT 10.0; Win64; x64) AppleWebKit/537.36 (KHTML, like Gecko) Chrome/134.0.0.0 Safari/537.36 OPR/119.0.0.0" version="27.1.6">
  <diagram name="Page-1" id="6oV5yZ-lldp5qsoaxfFn">
    <mxGraphModel dx="1013" dy="606" grid="1" gridSize="10" guides="1" tooltips="1" connect="1" arrows="1" fold="1" page="1" pageScale="1" pageWidth="850" pageHeight="1100" math="0" shadow="0">
      <root>
        <mxCell id="0" />
        <mxCell id="1" parent="0" />
        <mxCell id="eWZX6zvSekk-s4MlvDuf-5" value="Zombie" style="swimlane;fontStyle=1;align=center;verticalAlign=top;childLayout=stackLayout;horizontal=1;startSize=26;horizontalStack=0;resizeParent=1;resizeParentMax=0;resizeLast=0;collapsible=1;marginBottom=0;whiteSpace=wrap;html=1;" parent="1" vertex="1">
          <mxGeometry x="610" y="300" width="210" height="400" as="geometry" />
        </mxCell>
        <mxCell id="eWZX6zvSekk-s4MlvDuf-6" value="&lt;div&gt;- speed : int&lt;/div&gt;&lt;div&gt;- damage : int&amp;nbsp;&lt;/div&gt;&lt;div&gt;- health: int&lt;/div&gt;&lt;div&gt;&lt;div&gt;- x : int&lt;/div&gt;&lt;div&gt;- y : int&lt;/div&gt;&lt;/div&gt;" style="text;strokeColor=none;fillColor=none;align=left;verticalAlign=top;spacingLeft=4;spacingRight=4;overflow=hidden;rotatable=0;points=[[0,0.5],[1,0.5]];portConstraint=eastwest;whiteSpace=wrap;html=1;" parent="eWZX6zvSekk-s4MlvDuf-5" vertex="1">
          <mxGeometry y="26" width="210" height="94" as="geometry" />
        </mxCell>
        <mxCell id="eWZX6zvSekk-s4MlvDuf-7" value="" style="line;strokeWidth=1;fillColor=none;align=left;verticalAlign=middle;spacingTop=-1;spacingLeft=3;spacingRight=3;rotatable=0;labelPosition=right;points=[];portConstraint=eastwest;strokeColor=inherit;" parent="eWZX6zvSekk-s4MlvDuf-5" vertex="1">
          <mxGeometry y="120" width="210" height="8" as="geometry" />
        </mxCell>
        <mxCell id="eWZX6zvSekk-s4MlvDuf-8" value="+ Zombie(x : int, y : int)&lt;div&gt;+ move() : void&lt;/div&gt;&lt;div&gt;+ loseHP(dmg : int) : void&lt;/div&gt;&lt;div&gt;+ isDead() : boolean&lt;/div&gt;&lt;div&gt;&lt;div&gt;+ getDamage() : int&lt;/div&gt;&lt;div&gt;+ getSpeed() : int&lt;/div&gt;&lt;/div&gt;&lt;div&gt;+ getHealth() : int&lt;/div&gt;&lt;div&gt;+ getX() : int&lt;/div&gt;&lt;div&gt;+ getY() : int&lt;/div&gt;" style="text;strokeColor=none;fillColor=none;align=left;verticalAlign=top;spacingLeft=4;spacingRight=4;overflow=hidden;rotatable=0;points=[[0,0.5],[1,0.5]];portConstraint=eastwest;whiteSpace=wrap;html=1;" parent="eWZX6zvSekk-s4MlvDuf-5" vertex="1">
          <mxGeometry y="128" width="210" height="272" as="geometry" />
        </mxCell>
        <mxCell id="eWZX6zvSekk-s4MlvDuf-9" value="Peashooter" style="swimlane;fontStyle=1;align=center;verticalAlign=top;childLayout=stackLayout;horizontal=1;startSize=26;horizontalStack=0;resizeParent=1;resizeParentMax=0;resizeLast=0;collapsible=1;marginBottom=0;whiteSpace=wrap;html=1;" parent="1" vertex="1">
          <mxGeometry x="310" y="330" width="230" height="340" as="geometry" />
        </mxCell>
        <mxCell id="eWZX6zvSekk-s4MlvDuf-10" value="&lt;br&gt;&lt;div&gt;&lt;div&gt;&lt;div&gt;- lastAttackTurns : int&lt;/div&gt;&lt;div&gt;- x : int&lt;/div&gt;&lt;div&gt;- y : int&lt;/div&gt;&lt;div&gt;&lt;br&gt;&lt;/div&gt;&lt;div&gt;&lt;br&gt;&lt;/div&gt;&lt;div&gt;&lt;div&gt;&lt;br&gt;&lt;/div&gt;&lt;/div&gt;&lt;/div&gt;&lt;div&gt;&lt;br&gt;&lt;/div&gt;&lt;/div&gt;" style="text;strokeColor=none;fillColor=none;align=left;verticalAlign=top;spacingLeft=4;spacingRight=4;overflow=hidden;rotatable=0;points=[[0,0.5],[1,0.5]];portConstraint=eastwest;whiteSpace=wrap;html=1;" parent="eWZX6zvSekk-s4MlvDuf-9" vertex="1">
          <mxGeometry y="26" width="230" height="74" as="geometry" />
        </mxCell>
        <mxCell id="eWZX6zvSekk-s4MlvDuf-11" value="" style="line;strokeWidth=1;fillColor=none;align=left;verticalAlign=middle;spacingTop=-1;spacingLeft=3;spacingRight=3;rotatable=0;labelPosition=right;points=[];portConstraint=eastwest;strokeColor=inherit;" parent="eWZX6zvSekk-s4MlvDuf-9" vertex="1">
          <mxGeometry y="100" width="230" height="8" as="geometry" />
        </mxCell>
        <mxCell id="eWZX6zvSekk-s4MlvDuf-12" value="+ Peashooter(x : int, y : int)&lt;div&gt;+ turnIncrement() : void&lt;/div&gt;&lt;div&gt;+ canAttack() : boolean&lt;/div&gt;&lt;div&gt;+ cooldownReset() : void&lt;/div&gt;&lt;div&gt;+ loseHealth(dmg : int) : void&lt;/div&gt;&lt;div&gt;+ isDead() : boolean&lt;/div&gt;&lt;div&gt;+ getCost() : int&lt;/div&gt;&lt;div&gt;+ getRange() : int&lt;/div&gt;&lt;div&gt;+ getSpeed() : int&lt;/div&gt;&lt;div&gt;+ getRegenerateRate() : double&lt;/div&gt;&lt;div&gt;+ getHealth() : int&amp;nbsp;&lt;/div&gt;&lt;div&gt;&lt;div&gt;+ getDamage() : int&lt;/div&gt;&lt;div&gt;+ getDirectDamage() : int&lt;/div&gt;&lt;/div&gt;&lt;div&gt;+ getX() : int&lt;/div&gt;&lt;div&gt;+ getY() : int&lt;/div&gt;" style="text;strokeColor=none;fillColor=none;align=left;verticalAlign=top;spacingLeft=4;spacingRight=4;overflow=hidden;rotatable=0;points=[[0,0.5],[1,0.5]];portConstraint=eastwest;whiteSpace=wrap;html=1;" parent="eWZX6zvSekk-s4MlvDuf-9" vertex="1">
          <mxGeometry y="108" width="230" height="232" as="geometry" />
        </mxCell>
        <mxCell id="eWZX6zvSekk-s4MlvDuf-13" value="Sunflower" style="swimlane;fontStyle=1;align=center;verticalAlign=top;childLayout=stackLayout;horizontal=1;startSize=26;horizontalStack=0;resizeParent=1;resizeParentMax=0;resizeLast=0;collapsible=1;marginBottom=0;whiteSpace=wrap;html=1;" parent="1" vertex="1">
          <mxGeometry x="50" y="320" width="200" height="320" as="geometry" />
        </mxCell>
        <mxCell id="eWZX6zvSekk-s4MlvDuf-14" value="&lt;div&gt;&lt;div&gt;- sunAmount: int&lt;div&gt;- sunInterval: int&lt;div&gt;- x : int&lt;/div&gt;&lt;div&gt;- y : int&lt;/div&gt;&lt;div&gt;- sunTimer : int&lt;br&gt;&lt;div&gt;&lt;br&gt;&lt;/div&gt;&lt;/div&gt;&lt;/div&gt;&lt;/div&gt;&lt;div&gt;&lt;br&gt;&lt;/div&gt;&lt;/div&gt;" style="text;strokeColor=none;fillColor=none;align=left;verticalAlign=top;spacingLeft=4;spacingRight=4;overflow=hidden;rotatable=0;points=[[0,0.5],[1,0.5]];portConstraint=eastwest;whiteSpace=wrap;html=1;" parent="eWZX6zvSekk-s4MlvDuf-13" vertex="1">
          <mxGeometry y="26" width="200" height="84" as="geometry" />
        </mxCell>
        <mxCell id="eWZX6zvSekk-s4MlvDuf-15" value="" style="line;strokeWidth=1;fillColor=none;align=left;verticalAlign=middle;spacingTop=-1;spacingLeft=3;spacingRight=3;rotatable=0;labelPosition=right;points=[];portConstraint=eastwest;strokeColor=inherit;" parent="eWZX6zvSekk-s4MlvDuf-13" vertex="1">
          <mxGeometry y="110" width="200" height="8" as="geometry" />
        </mxCell>
        <mxCell id="eWZX6zvSekk-s4MlvDuf-16" value="+ Sunflower(x : int, y : int)&lt;div&gt;+ turnIncrement() : void&lt;/div&gt;&lt;div&gt;+ canProduceSun() : boolean&lt;/div&gt;&lt;div&gt;+ produceSun() : int&lt;/div&gt;&lt;div&gt;+ loseHealth(dmg : int) : void&lt;/div&gt;&lt;div&gt;+ isDead() : boolean&lt;/div&gt;&lt;div&gt;+ getCost() : int&lt;/div&gt;&lt;div&gt;+ getRegenerateRate() : double&lt;/div&gt;&lt;div&gt;+ getHealth() : int&amp;nbsp;&lt;/div&gt;&lt;div&gt;+ getX() : int&lt;/div&gt;&lt;div&gt;+ getY() : int&lt;/div&gt;" style="text;strokeColor=none;fillColor=none;align=left;verticalAlign=top;spacingLeft=4;spacingRight=4;overflow=hidden;rotatable=0;points=[[0,0.5],[1,0.5]];portConstraint=eastwest;whiteSpace=wrap;html=1;" parent="eWZX6zvSekk-s4MlvDuf-13" vertex="1">
          <mxGeometry y="118" width="200" height="202" as="geometry" />
        </mxCell>
        <mxCell id="bFMmEzYkEjL3SMjvHJc4-2" value="Classname" style="swimlane;fontStyle=1;align=center;verticalAlign=top;childLayout=stackLayout;horizontal=1;startSize=26;horizontalStack=0;resizeParent=1;resizeParentMax=0;resizeLast=0;collapsible=1;marginBottom=0;whiteSpace=wrap;html=1;" vertex="1" parent="1">
          <mxGeometry x="305" y="66" width="240" height="214" as="geometry" />
        </mxCell>
        <mxCell id="bFMmEzYkEjL3SMjvHJc4-3" value="# cost: int&lt;div&gt;# regenerateRate: int&lt;/div&gt;&lt;div&gt;# damage : int&lt;div&gt;# range : int&lt;div&gt;# directDamage : int&lt;/div&gt;&lt;div&gt;# speed : double&lt;/div&gt;&lt;div&gt;# health: int&lt;/div&gt;&lt;/div&gt;&lt;/div&gt;" style="text;strokeColor=none;fillColor=none;align=left;verticalAlign=top;spacingLeft=4;spacingRight=4;overflow=hidden;rotatable=0;points=[[0,0.5],[1,0.5]];portConstraint=eastwest;whiteSpace=wrap;html=1;" vertex="1" parent="bFMmEzYkEjL3SMjvHJc4-2">
          <mxGeometry y="26" width="240" height="154" as="geometry" />
        </mxCell>
        <mxCell id="bFMmEzYkEjL3SMjvHJc4-4" value="" style="line;strokeWidth=1;fillColor=none;align=left;verticalAlign=middle;spacingTop=-1;spacingLeft=3;spacingRight=3;rotatable=0;labelPosition=right;points=[];portConstraint=eastwest;strokeColor=inherit;" vertex="1" parent="bFMmEzYkEjL3SMjvHJc4-2">
          <mxGeometry y="180" width="240" height="8" as="geometry" />
        </mxCell>
        <mxCell id="bFMmEzYkEjL3SMjvHJc4-5" value="+ method(type): type" style="text;strokeColor=none;fillColor=none;align=left;verticalAlign=top;spacingLeft=4;spacingRight=4;overflow=hidden;rotatable=0;points=[[0,0.5],[1,0.5]];portConstraint=eastwest;whiteSpace=wrap;html=1;" vertex="1" parent="bFMmEzYkEjL3SMjvHJc4-2">
          <mxGeometry y="188" width="240" height="26" as="geometry" />
        </mxCell>
      </root>
    </mxGraphModel>
  </diagram>
</mxfile>
